<svg xmlns="http://www.w3.org/2000/svg" width="512" height="512"><defs><linearGradient id="a" x1="279.945" x2="1968.575" y1="264.743" y2="1975.234" gradientTransform="matrix(.05615 .02269 -.02283 .05651 26.53 -21.064)" gradientUnits="userSpaceOnUse"><stop offset="0%" stop-color="#FF8F71"/><stop offset="100%" stop-color="#FF3E55"/></linearGradient></defs><g style="stroke-width:.264584"><path fill="url(#a)" fill-rule="evenodd" d="m110.522 91.055-17.944 44.412L48.26 117.56l15.668-38.779a6.075 6.075 0 0 1 7.909-3.357l38.686 15.63zM36.73 61.165c12.24 4.945 18.151 18.874 13.207 31.112l-.038.093c-4.944 12.238-18.874 18.151-31.112 13.206C6.55 100.632.637 86.702 5.581 74.464l.037-.093c4.945-12.238 18.874-18.15 31.112-13.206zm43.178-43.26-15.667 38.78a6.075 6.075 0 0 1-7.91 3.356l-38.685-15.63L35.59 0zm51.725 20.899-17.944 44.411-38.686-15.63a6.075 6.075 0 0 1-3.357-7.909l15.668-38.778z" style="fill:url(#a);stroke-width:.0700042" transform="matrix(3.77952 0 0 3.77952 -.001 0)"/></g></svg>