<svg xmlns="http://www.w3.org/2000/svg" xmlns:xlink="http://www.w3.org/1999/xlink" width="511.954" height="353.639"><defs><linearGradient x1="0" y1="145.979" x2="523.578" y2="377.599" id="c" gradientTransform="scale(1.22618 .81554)" gradientUnits="userSpaceOnUse"><stop stop-color="#FF8F71" offset="0%"/><stop stop-color="#FF3E55" offset="100%"/></linearGradient><linearGradient x1="132.699" y1="298.178" x2="384.503" y2="339.851" id="e" gradientTransform="matrix(1.01143 0 0 .40369 45.838 110.338)" gradientUnits="userSpaceOnUse"><stop stop-color="#FF8F71" offset="0%"/><stop stop-color="#FF3E55" offset="100%"/></linearGradient><filter x="-.109" y="-.117" width="1.218" height="1.328" filterUnits="objectBoundingBox" id="b"><feOffset dy="20" in="SourceAlpha" result="shadowOffsetOuter1"/><feGaussianBlur stdDeviation="20" in="shadowOffsetOuter1" result="shadowBlurOuter1"/><feColorMatrix values="0 0 0 0 0.421821759 0 0 0 0 0.554338424 0 0 0 0 0.893710371 0 0 0 0.243444056 0" in="shadowBlurOuter1"/></filter><rect id="a" x="0" y="0" width="642" height="427" rx="15"/><mask id="d" fill="#fff"><use xlink:href="#a" width="100%" height="100%"/></mask></defs><g transform="translate(-.023 -79.182)"><use filter="url(#b)" xlink:href="#a" width="100%" height="100%" style="fill-rule:nonzero;stroke-width:2.44538" transform="matrix(.65471 0 0 .62364 45.838 110.338)"/><use fill="url(#c)" xlink:href="#a" width="100%" height="100%" style="fill:url(#c);fill-rule:nonzero;stroke-width:1.56499" transform="matrix(.65471 0 0 .62364 45.838 110.338)"/><path d="M3 125h636a3 3 0 0 1 3 3v296a3 3 0 0 1-3 3H3a3 3 0 0 1-3-3V128a3 3 0 0 1 3-3z" fill="#2d2e40" mask="url(#d)" transform="matrix(.65471 0 0 .62364 45.838 110.338)" style="stroke-width:2.44538"/><rect fill="#fff" mask="url(#d)" x="90.523" y="47.709" width="135.785" height="137.165" rx="3" transform="matrix(.65471 0 0 .62364 45.838 110.338)" style="stroke-width:2.44538"/><ellipse fill="#2d2e40" mask="url(#d)" cx="158.416" cy="116.888" rx="39.306" ry="39.36" style="fill-rule:evenodd;stroke-width:2.44538" transform="matrix(.65471 0 0 .62364 45.838 110.338)"/><rect fill="#fff" mask="url(#d)" x="248.939" y="47.709" width="302.538" height="325.617" rx="3" transform="matrix(.65471 0 0 .62364 45.838 110.338)" style="stroke-width:2.44538"/><path d="M182.672 287.45c30.854-45.754 53.672-70.478 68.455-74.173 22.175-5.542 15.56 51.849 47.49 45.196 31.93-6.651 35.822-64.842 59.973-67.583 24.15-2.742 36.927 50.48 47.476 55.385 7.033 3.268 15.716-3.8 26.05-21.208" stroke="url(#e)" stroke-width="8" stroke-linecap="round" style="fill:none;fill-rule:evenodd;stroke:url(#e)"/></g></svg>