<svg xmlns="http://www.w3.org/2000/svg" width="2103.534" height="2229.751"><defs><linearGradient id="a" x1="279.945" x2="1968.575" y1="264.743" y2="1975.234" gradientTransform="matrix(.9242 .3734 -.37581 .93017 373.554 -346.707)" gradientUnits="userSpaceOnUse"><stop offset="0%" stop-color="#FF8F71"/><stop offset="100%" stop-color="#FF3E55"/></linearGradient></defs><path fill="url(#a)" fill-rule="evenodd" d="m1756.052 1498.75-295.344 731-729.476-294.727 257.883-638.283c20.688-51.206 78.972-75.946 130.179-55.258l636.759 257.268zM541.467 1006.761c201.44 81.387 298.761 310.664 217.375 512.103l-.617 1.525c-81.387 201.44-310.662 298.761-512.102 217.374-201.44-81.387-298.76-310.664-217.374-512.102l.616-1.525c81.387-201.44 310.663-298.761 512.102-217.375zm710.695-712.034L994.28 933.01c-20.69 51.209-78.971 75.947-130.179 55.258L227.342 731.001 522.685 0zm851.372 343.976-295.344 731.001-636.76-257.267c-51.206-20.689-75.946-78.972-55.257-130.18l257.883-638.282z" style="fill:url(#a)"/></svg>