<svg xmlns="http://www.w3.org/2000/svg" xmlns:xlink="http://www.w3.org/1999/xlink" width="781.956" height="567.056"><defs><linearGradient x1="0" y1="145.979" x2="523.578" y2="377.599" id="c" gradientTransform="scale(1.22618 .81554)" gradientUnits="userSpaceOnUse"><stop stop-color="#FF8F71" offset="0%"/><stop stop-color="#FF3E55" offset="100%"/></linearGradient><linearGradient x1="132.699" y1="298.178" x2="384.503" y2="339.851" id="e" gradientTransform="matrix(1.54485 0 0 .64731 69.978 49.959)" gradientUnits="userSpaceOnUse"><stop stop-color="#FF8F71" offset="0%"/><stop stop-color="#FF3E55" offset="100%"/></linearGradient><filter x="-.109" y="-.117" width="1.218" height="1.328" filterUnits="objectBoundingBox" id="b"><feOffset dy="20" in="SourceAlpha" result="shadowOffsetOuter1"/><feGaussianBlur stdDeviation="20" in="shadowOffsetOuter1" result="shadowBlurOuter1"/><feColorMatrix values="0 0 0 0 0.421821759 0 0 0 0 0.554338424 0 0 0 0 0.893710371 0 0 0 0.243444056 0" in="shadowBlurOuter1"/></filter><rect id="a" x="0" y="0" width="642" height="427" rx="15"/></defs><g transform="translate(69.978 49.959)" style="fill:none;fill-rule:evenodd"><mask id="d" fill="#fff"><use xlink:href="#a" width="100%" height="100%"/></mask><use filter="url(#b)" xlink:href="#a" width="100%" height="100%"/><use fill="url(#c)" xlink:href="#a" width="100%" height="100%" style="fill:url(#c)"/><path d="M3 125h636a3 3 0 0 1 3 3v296a3 3 0 0 1-3 3H3a3 3 0 0 1-3-3V128a3 3 0 0 1 3-3z" fill="#2d2e40" mask="url(#d)"/><rect fill="#fff" mask="url(#d)" x="90.523" y="47.709" width="135.785" height="137.165" rx="3"/><ellipse fill="#2d2e40" mask="url(#d)" cx="158.416" cy="116.888" rx="39.306" ry="39.36"/><rect fill="#fff" mask="url(#d)" x="248.939" y="47.709" width="302.538" height="325.617" rx="3"/></g><path d="M278.978 333.959c47.125-73.367 81.977-113.013 104.557-118.938 33.87-8.886 23.765 83.14 72.535 72.473 48.77-10.666 54.716-103.974 91.603-108.37 36.887-4.397 56.402 80.946 72.515 88.81 10.742 5.241 24.005-6.094 39.79-34.007" stroke="url(#e)" stroke-width="8" stroke-linecap="round" style="fill:none;fill-rule:evenodd;stroke:url(#e)"/></svg>