<svg xmlns="http://www.w3.org/2000/svg" xmlns:xlink="http://www.w3.org/1999/xlink" width="928.971" height="633.113"><defs><linearGradient x1="0" y1="115.307" x2="412.251" y2="296.945" id="c" gradientTransform="scale(1.2274 .81473)" gradientUnits="userSpaceOnUse"><stop stop-color="#FF8F71" offset="0%"/><stop stop-color="#FF3E55" offset="100%"/></linearGradient><filter x="-.165" y="-.285" width="1.329" height="1.571" filterUnits="objectBoundingBox" id="a"><feOffset dy="20" in="SourceAlpha" result="shadowOffsetOuter1"/><feGaussianBlur stdDeviation="20" in="shadowOffsetOuter1" result="shadowBlurOuter1"/><feColorMatrix values="0 0 0 0 0.421821759 0 0 0 0 0.554338424 0 0 0 0 0.893710371 0 0 0 0.243444056 0" in="shadowBlurOuter1" result="shadowMatrixOuter1"/><feMerge><feMergeNode in="shadowMatrixOuter1"/><feMergeNode in="SourceGraphic"/></feMerge></filter><rect id="b" x="0" y="0" width="506" height="335.872" rx="3"/><path d="M3 0h692.9a3 3 0 0 1 3 3v14.105H0V3a3 3 0 0 1 3-3z" id="e"/></defs><g transform="translate(115.335 114.855)" filter="url(#a)" style="fill:none;fill-rule:evenodd"><rect fill="#535353" x="82" y="16" width="538" height="368" rx="12"/><rect fill="#1d1d25" x="85" y="19" width="532" height="362" rx="10"/><g transform="translate(99 32)"><mask id="d" fill="#fff"><use xlink:href="#b" width="100%" height="100%"/></mask><use fill="url(#c)" xlink:href="#b" width="100%" height="100%" style="fill:url(#c)"/><rect fill="#f9f6f6" mask="url(#d)" x="-.325" y="60.293" width="506" height="275.838" rx="3"/><g mask="url(#d)"><g transform="translate(71.475 37.46)"><rect fill="#fff" width="106.646" height="256.541" rx="3"/><rect fill="#fff" x="124.798" width="238.251" height="256.541" rx="3"/><rect fill="#e7e7e7" x="135.009" y="13.622" width="217.83" height="60.162" rx="3"/><rect fill="#e7e7e7" x="135.009" y="86.27" width="64.668" height="60.162" rx="3"/><rect fill="#e7e7e7" x="215.561" y="86.27" width="137.278" height="60.162" rx="3"/></g></g></g><g transform="translate(349)" fill="#4a5166" opacity=".098"><rect width="13.6" height="3" rx="1.5"/><rect x="16.8" width="3.2" height="3" rx="1.5"/></g><g transform="translate(0 380)"><mask id="f" fill="#fff"><use xlink:href="#e" width="100%" height="100%"/></mask><use fill="#52526f" xlink:href="#e" width="100%" height="100%"/><rect fill="#2f2f47" mask="url(#f)" x="292.371" y="-41.908" width="114.156" height="52.171" rx="10"/></g><path d="M0 397h699a6 6 0 0 1-6 6H6a6 6 0 0 1-6-6z" fill="#393a56"/></g></svg>